<svg width="96" height="19" viewBox="0 0 96 19" fill="none" xmlns="http://www.w3.org/2000/svg">
<g clip-path="url(#clip0_315_41)">
<path d="M91.9085 2.40619C91.9085 1.31895 92.784 0.427767 93.8561 0.427767C94.3742 0.427767 94.8566 0.641651 95.2318 0.998124C95.607 1.37242 95.8036 1.87148 95.8036 2.38837C95.8036 2.90525 95.607 3.40431 95.2318 3.77861C94.8566 4.15291 94.3742 4.36679 93.8561 4.36679C92.784 4.36679 91.9085 3.49343 91.9085 2.40619ZM91.7477 2.40619C91.7477 3.58255 92.6947 4.54503 93.8739 4.54503C94.4457 4.54503 94.9638 4.33114 95.3569 3.9212C95.75 3.51126 95.9823 2.97655 95.9823 2.40619C95.9823 1.83583 95.7678 1.30113 95.3569 0.891182C94.946 0.481238 94.4278 0.267355 93.8739 0.267355C92.6947 0.267355 91.7477 1.22983 91.7477 2.40619ZM93.0699 3.67167H93.3736V2.67355H94.0526C94.1598 2.67355 94.2491 2.67355 94.3206 2.70919C94.4099 2.76266 94.4635 2.86961 94.4814 3.01219L94.5172 3.40431V3.58255C94.535 3.6182 94.535 3.63602 94.5529 3.65385H94.9281V3.60037C94.8745 3.58255 94.8566 3.52908 94.8388 3.45779C94.8209 3.42214 94.8209 3.35084 94.8209 3.26173L94.803 2.95872C94.803 2.81613 94.7673 2.72702 94.7316 2.67355C94.6779 2.62007 94.6065 2.5666 94.5172 2.53096C94.6244 2.47749 94.6958 2.40619 94.7494 2.31707C94.803 2.22795 94.8209 2.12101 94.8209 1.97842C94.8209 1.71107 94.7137 1.53283 94.5172 1.42589C94.41 1.37242 94.267 1.3546 94.1062 1.3546H93.0878L93.0699 3.67167ZM93.3558 2.40619V1.60413H94.0705C94.1777 1.60413 94.267 1.62195 94.3206 1.6576C94.4278 1.71107 94.4814 1.83583 94.4814 1.99625C94.4814 2.15666 94.4457 2.2636 94.3563 2.31707C94.2849 2.37054 94.1777 2.40619 94.0347 2.40619H93.3558ZM8.70114 5.34709L0.0177002 18.9644H5.9496L14.3114 5.9531L8.70114 5.34709ZM44.4533 5.04409V0H27.5689C25.264 0.142589 24.2634 1.24765 23.513 2.03189C22.709 2.86961 22.2623 4.63415 22.2623 4.63415V0.0356473H13.2751C12.5962 0.0356473 11.953 0.320825 11.4706 0.998124C10.9703 1.6576 8.91555 5.04409 8.91555 5.04409H44.4533ZM90.372 5.04409V0H72.3083C70.0213 0.142589 69.0028 1.24765 68.2524 2.03189C67.4484 2.86961 67.0017 4.63415 67.0017 4.63415V5.04409H90.372ZM50.3852 0.0178236H45.3288V5.04409H50.3852V0.0178236ZM66.9481 0.0178236H61.9096V5.04409H66.9481V0.0178236ZM66.9481 6.8621L61.981 6.5591V12.3874C61.981 12.3874 61.9632 14.0629 60.3373 14.0629H51.8325C51.8325 14.0629 50.3852 13.9381 50.3852 12.4053V5.77486L45.3824 5.41839V14.348C46.1865 18.6257 50.0636 18.9644 50.0636 18.9644C50.0636 18.9644 50.4567 18.9822 50.5282 19H62.0525C62.0525 19 66.9838 18.6079 66.9838 13.8668L66.9481 6.8621ZM17.1166 18.9644H40.737C44.8464 18.1445 45.2752 14.4015 45.2752 14.4015C45.4718 13.2964 45.3646 12.3874 45.3646 12.3874C45.2395 11.6388 43.8101 8.32364 40.737 8.03846C38.8967 7.86022 22.5125 6.5591 22.5125 6.5591C22.8341 8.19887 23.5666 9.03658 24.0669 9.5C25.2104 10.5872 27.015 10.9081 27.015 10.9081L39.6471 11.9597C40.0402 11.9775 40.7727 12.0844 40.7548 13.0469C40.7548 13.1717 40.6476 14.0094 39.7185 14.0094H22.0479V6.52345L17.1344 6.16698C17.1166 6.16698 17.1166 18.9644 17.1166 18.9644ZM66.9838 19H85.0654C89.6037 18.7326 90.2469 14.4371 90.2469 14.4371C90.4077 13.3143 90.2826 12.3874 90.2826 12.3874C90.1576 11.3715 88.7103 8.30582 85.6193 8.00281C83.7969 7.82458 67.3055 6.8621 67.3055 6.8621C67.7879 8.55535 68.449 9.07223 68.9492 9.53565C70.0927 10.6407 71.7901 10.8902 71.7901 10.8902C72.2189 10.9259 84.5473 11.9597 84.5473 11.9597C84.9403 11.9775 85.7444 12.0131 85.7444 12.9756C85.7444 13.2608 85.6014 13.5638 85.4228 13.7242C85.4228 13.7242 84.9939 13.9559 84.583 13.9559H67.0374L66.9838 19Z" fill="#E7F5FF" fill-opacity="0.4"/>
</g>
<defs>
<clipPath id="clip0_315_41">
<rect width="96" height="19" fill="white"/>
</clipPath>
</defs>
</svg>
