<svg width="64" height="27" viewBox="0 0 64 27" fill="none" xmlns="http://www.w3.org/2000/svg">
<g clip-path="url(#clip0_315_48)">
<path d="M0 0.5V2.27885H12.4575V0.5H0ZM14.2225 0.5V2.27885H31.975C31.975 2.27885 30.1617 0.5 27.76 0.5H14.2225ZM35.4575 0.5V2.27885H46.1974L45.56 0.5H35.4575ZM53.8975 0.5L53.26 2.27885H63.9025V0.5H53.8975ZM0 3.95943V5.73828H12.4575V3.95943H0ZM14.2225 3.96197V5.73835H34.0349C34.0349 5.73835 33.8036 4.36926 33.3999 3.96197H14.2225ZM35.4575 3.96197V5.73835H47.375L46.785 3.96197H35.4575ZM52.6225 3.96197L52.0325 5.73835H63.9025V3.96197H52.6225ZM3.57997 7.41886V9.20025H8.97498V7.41886H3.57997ZM17.8025 7.41886V9.20025H23.1975V7.41886H17.8025ZM28.445 7.41886V9.20025H33.84C33.84 9.20025 34.1825 8.2595 34.1825 7.41886H28.445ZM39.0375 7.41886V9.20025H48.6025L47.965 7.41886H39.0375ZM51.4475 7.41886L50.8075 9.20025H60.42V7.41886H51.4475ZM3.57997 10.8809V12.6597H8.97498V10.8809H3.57997ZM17.8025 10.8809V12.6597H31.5825C31.5825 12.6597 32.7352 11.747 33.1025 10.8809H17.8025ZM39.0375 10.8809V12.6597H44.4325V11.6695L44.775 12.6597H54.6575L55.025 11.6695V12.6597H60.42V10.8809H50.2925L49.755 12.3876L49.215 10.8809H39.0375ZM3.57997 14.3403V16.1192H8.97498V14.3403H3.57997ZM17.8025 14.3403V16.1192H33.1025C32.7352 15.2559 31.5825 14.3403 31.5825 14.3403H17.8025ZM39.0375 14.3403V16.1192H44.4325V14.3403H39.0375ZM45.4125 14.3403L46.065 16.1192H53.4749L54.095 14.3403H45.4125ZM55.025 14.3403V16.1192H60.42V14.3403H55.025ZM3.57997 17.7997V19.5785H8.97498V17.7997H3.57997ZM17.8025 17.7997V19.5785H23.1975V17.7997H17.8025ZM28.445 17.7997V19.5785H34.1825C34.1825 18.7391 33.8399 17.7997 33.8399 17.7997H28.445ZM39.0375 17.7997V19.5785H44.4325V17.7997H39.0375ZM46.6375 17.7997L47.27 19.5785H52.2375L52.875 17.7997H46.6375ZM55.025 17.7997V19.5785H60.42V17.7997H55.025ZM0.097472 21.2592V23.0406H12.5549V21.2592H0.097472ZM14.2225 21.2592V23.0406H33.3999C33.8036 22.6327 34.0349 21.2592 34.0349 21.2592H14.2225ZM35.555 21.2592V23.0406H44.4325V21.2592H35.555ZM47.865 21.2592L48.5149 23.0406H51.0424L51.6524 21.2592H47.865ZM55.025 21.2592V23.0406H64V21.2592H55.025ZM0.097472 24.7211V26.5H12.5549V24.7211H0.097472ZM14.2225 24.7211V26.4975H27.76C30.1617 26.4975 31.975 24.7211 31.975 24.7211H14.2225ZM35.555 24.7211V26.5H44.4325V24.7211H35.555ZM49.0975 24.7211L49.7225 26.495L49.83 26.4975L50.465 24.7211H49.0975ZM55.025 24.7211V26.5H64V24.7211H55.025Z" fill="#E7F5FF" fill-opacity="0.4"/>
</g>
<defs>
<clipPath id="clip0_315_48">
<rect width="64" height="26" fill="white" transform="translate(0 0.5)"/>
</clipPath>
</defs>
</svg>
