<svg width="44" height="39" viewBox="0 0 44 39" fill="none" xmlns="http://www.w3.org/2000/svg">
<g clip-path="url(#clip0_315_6)">
<path fill-rule="evenodd" clip-rule="evenodd" d="M43.979 37.3807C43.7853 27.8713 42.2677 18.7188 39.7039 11.61C37.12 4.44866 33.8947 0.50415 30.6247 0.50415C28.5926 0.50415 26.684 1.99637 24.9489 4.94207C23.8744 6.76906 22.873 9.16786 22.0023 11.9909C21.1288 9.16786 20.1292 6.76906 19.0529 4.94207C17.3197 1.99637 15.4101 0.50415 13.3781 0.50415C10.1053 0.50415 6.88182 4.44866 4.29886 11.61C1.73599 18.7188 0.217455 27.8713 0.0237556 37.3798L0 38.4957H6.5666L6.5794 37.4185C6.83431 17.5512 11.5224 4.95037 13.432 4.95037C14.7184 4.95037 18.0059 13.6759 18.5047 35.2789L18.5303 36.3432H25.4724L25.4971 35.2789C25.9951 13.6759 29.2834 4.94944 30.5698 4.94944C32.4803 4.94944 37.1666 17.5503 37.4224 37.4176L37.4361 38.4957H44L43.979 37.3807Z" fill="#E7F5FF" fill-opacity="0.4"/>
</g>
<defs>
<clipPath id="clip0_315_6">
<rect width="44" height="38" fill="white" transform="translate(0 0.5)"/>
</clipPath>
</defs>
</svg>
