<svg width="96" height="17" viewBox="0 0 96 17" fill="none" xmlns="http://www.w3.org/2000/svg">
<g clip-path="url(#clip0_315_43)">
<path d="M34.2012 16.8508C30.7236 16.8508 27.4955 15.8202 25.3407 13.909C23.7128 12.4651 22.9305 10.5038 22.9305 8.48513C22.9305 6.49106 23.7465 4.51622 25.3405 3.07991C27.3417 1.27766 30.8748 0.148987 34.2012 0.148987C37.8823 0.148987 40.8286 1.06526 43.0809 3.08486C44.6834 4.52193 45.4582 6.48801 45.4582 8.48532C45.4582 10.4213 44.636 12.483 43.0809 13.909C40.9836 15.8326 37.6876 16.8508 34.2012 16.8508V14.6479C36.047 14.6479 37.7592 14.0182 38.9549 12.8425C40.1424 11.6747 40.6956 10.2394 40.6956 8.48513C40.6956 6.80461 40.0988 5.23342 38.9549 4.11904C37.7752 2.97075 36.0221 2.3246 34.2012 2.3246C32.3747 2.3246 30.6205 2.96409 29.4398 4.11904C28.3021 5.23304 27.7037 6.8088 27.7037 8.48513C27.7037 10.1563 28.309 11.7311 29.4398 12.8426C30.6215 14.0043 32.3695 14.6479 34.2012 14.6479V16.8508ZM8.78376 0.156988C6.92354 0.156988 4.8102 0.500827 3.01455 1.29328C1.35731 2.024 0.00079385 3.20582 0.00079385 5.16504C2.27714e-05 6.92957 1.13486 7.96299 1.10401 7.93442C1.58671 8.3735 2.36376 9.12119 4.39536 9.56027C5.30331 9.75648 7.2445 10.0578 9.17759 10.2575C11.0964 10.4575 12.9848 10.6476 13.7539 10.84C14.365 10.9937 15.3915 11.2031 15.3915 12.3411C15.3915 13.4745 14.3101 13.8204 14.1221 13.8955C13.9344 13.9688 12.637 14.5571 10.3049 14.5571C8.58309 14.5571 6.51313 14.0454 5.75863 13.7787C4.88885 13.4728 3.97647 13.0682 3.1254 12.0409C2.91373 11.7862 2.57986 11.0857 2.57986 10.3922H0.469224V16.2365H2.81523V15.4469C2.81523 15.357 2.92896 14.9872 3.32279 15.163C3.81281 15.3831 5.25126 15.949 6.75525 16.2593C7.9884 16.5142 8.78357 16.6969 10.3167 16.6969C12.818 16.6969 14.1618 16.2942 15.0908 16.0321C15.966 15.7844 17.0474 15.3398 17.9259 14.6476C18.4016 14.2732 19.4449 13.3137 19.4449 11.5721C19.4449 9.9003 18.5369 8.86269 18.2175 8.54704C17.7824 8.11691 17.251 7.78355 16.6971 7.52657C16.2146 7.30217 15.4532 7.03263 14.8302 6.88195C13.6209 6.58859 10.8867 6.22665 9.57913 6.0914C8.20796 5.94987 5.82938 5.75518 4.87941 5.46468C4.59141 5.37648 4.00423 5.10008 4.00423 4.4265C4.00423 3.94741 4.27276 3.54128 4.80346 3.21306C5.64586 2.69149 7.34744 2.36727 9.12111 2.36727C11.2181 2.35965 12.9938 2.83341 14.1235 3.3325C14.5077 3.50204 14.9572 3.74549 15.3142 4.03351C15.7171 4.35811 16.2827 5.03264 16.4872 5.97349H18.3821V0.886193H16.2663V1.47748C16.2663 1.66836 16.0668 1.91638 15.6895 1.71141C14.7427 1.22051 12.0655 0.161369 8.78338 0.156988M55.1514 1.08145L65.4727 10.286L65.3667 4.08875C65.3562 3.27611 65.2047 2.93685 64.3153 2.93685H62.3747V1.08297H71.1997V2.93685H69.3067C68.3995 2.93685 68.3422 3.22354 68.3313 4.08875L68.4912 15.9303H65.469L53.5809 5.44563L53.5834 12.8867C53.5938 13.6955 53.6322 14.0765 54.4756 14.0765H56.5951V15.9296H47.9281V14.0767H49.9541C50.711 14.0767 50.6809 13.3636 50.6809 12.8446V4.15924C50.6809 3.59862 50.6013 2.93818 49.413 2.93818H47.7691V1.08145H55.1514ZM81.284 14.073C81.3669 14.073 81.7351 14.0626 81.8064 14.041C81.8962 14.0142 81.9789 13.9685 82.049 13.907C82.1191 13.8455 82.1749 13.7697 82.2124 13.6848C82.2394 13.622 82.2529 13.3438 82.2529 13.2834L82.2544 10.3537C82.2544 10.2832 82.2492 10.2527 82.1282 10.0957C81.9951 9.9243 76.7219 4.01903 76.4806 3.75901C76.1808 3.43613 75.6546 2.93704 74.855 2.93704H73.0211V1.0824H83.3704V2.93475H82.1228C81.8342 2.93475 81.6424 3.20525 81.8889 3.50585C81.8889 3.50585 85.3709 7.62182 85.4039 7.66487C85.4363 7.70868 85.464 7.71916 85.5084 7.67916C85.5519 7.6382 89.0777 3.54356 89.1055 3.51118C89.2732 3.31269 89.1594 2.93685 88.798 2.93685H87.5182V1.0824H96V2.93685H94.1051C93.4177 2.93685 93.138 3.06257 92.6208 3.64033C92.3843 3.90474 87.0548 9.91611 86.9098 10.079C86.8339 10.1641 86.8404 10.2828 86.8404 10.3533V13.2827C86.8404 13.3421 86.8539 13.6206 86.8809 13.6831C86.9184 13.7681 86.9742 13.844 87.0445 13.9056C87.1147 13.9671 87.1977 14.0127 87.2876 14.0393C87.359 14.061 87.7221 14.0717 87.8048 14.0717H89.7431V15.926H79.4473V14.0715L81.2844 14.073H81.284Z" fill="#E7F5FF" fill-opacity="0.4"/>
</g>
<defs>
<clipPath id="clip0_315_43">
<rect width="96" height="17" fill="white"/>
</clipPath>
</defs>
</svg>
