<svg width="64" height="65" viewBox="0 0 64 65" fill="none" xmlns="http://www.w3.org/2000/svg">
<path d="M0.813843 32.252C0.813843 14.9597 14.835 0.940125 32.133 0.940125C49.4296 0.940125 63.4512 14.9597 63.4512 32.252C63.4512 49.5458 49.4296 63.5638 32.133 63.5638C14.835 63.5638 0.813843 49.5453 0.813843 32.252Z" fill="#1864AB"/>
<path d="M1.73712 32.2518C1.73712 15.4695 15.345 1.86401 32.1325 1.86401C48.919 1.86401 62.5279 15.4695 62.5279 32.2518C62.5279 49.0346 48.919 62.6405 32.1325 62.6405C15.345 62.64 1.73712 49.0346 1.73712 32.2518Z" fill="#E7F5FF" fill-opacity="0.4"/>
<path d="M2.72723 32.2518C2.72723 16.0161 15.8923 2.85437 32.1331 2.85437C48.3728 2.85437 61.5379 16.0161 61.5379 32.2518C61.5379 48.4884 48.3723 61.6502 32.1331 61.6502C15.8918 61.6502 2.72723 48.4884 2.72723 32.2518Z" fill="#1864AB"/>
<path d="M13.9564 32.1278C13.9564 22.1284 22.0637 14.0228 32.0643 14.0228C42.0649 14.0228 50.1717 22.1284 50.1717 32.1278C50.1717 42.1257 42.0649 50.2307 32.0643 50.2307C22.0637 50.2307 13.9564 42.1257 13.9564 32.1278ZM34.9275 5.44294C35.4236 5.88767 35.5642 6.47295 35.5385 7.12197C35.3985 7.58076 35.1444 8.02549 34.7362 8.34423C35.2333 8.71266 35.7298 9.09515 35.8056 9.75622C35.9462 10.4052 35.7544 10.99 35.3854 11.4739C34.6097 12.3513 33.3752 12.1229 32.2546 12.1601L29.2959 12.2379L29.2758 11.9688L28.9716 5.2517L28.959 5.10513C30.906 5.09258 33.1964 4.58912 34.9275 5.44294ZM40.4392 6.39013C39.9165 7.89799 39.2302 9.38729 38.8597 10.9775C38.8388 11.183 38.8931 11.3891 39.0125 11.5576C39.132 11.7262 39.3085 11.8457 39.5094 11.894C39.8221 12.0662 40.267 12.0983 40.5019 11.894C41.5081 10.482 41.9855 8.72571 42.6161 7.14105C43.4174 7.42164 44.042 7.8222 44.8187 8.11484C43.9903 9.87117 43.4812 11.9392 42.3355 13.3828C41.5086 14.1082 40.1977 13.9295 39.2056 13.6875C38.0725 13.2809 36.8379 12.5561 36.4945 11.2832C36.2279 10.4118 37.4368 7.42114 38.0981 5.63418L40.4392 6.39013Z" fill="#E7F5FF" fill-opacity="0.4"/>
<path d="M22.0983 14.7582L20.4179 15.864C19.7908 15.5337 19.4248 15.3108 18.9669 15.101L17.1068 16.6666C17.2981 17.1254 17.5421 17.6846 17.7454 18.1936L16.0841 20.0503L15.9505 19.7576L13.0099 12.7725L15.6955 10.4625L15.9119 10.5965C18.019 11.8825 20.1844 13.3989 22.3187 14.6131L22.0983 14.7582ZM22.518 14.5022C21.6359 12.3513 20.5555 9.83905 19.7562 7.8217C21.7805 7.00703 24.708 5.00323 26.5144 6.86799C26.9723 7.37697 27.0361 8.08924 27.0486 8.73826C26.9352 9.15739 26.8317 9.57853 26.5526 9.92187C27.1566 10.6653 28.2782 11.509 29.0539 12.2469L28.9585 12.279L26.6676 12.7845C25.8527 12.1295 25.3913 11.6672 24.6824 11.1813C24.3767 11.2184 24.1663 11.3976 23.8791 11.5246L24.6684 13.3321L22.518 14.5022Z" fill="#E7F5FF" fill-opacity="0.4"/>
<path d="M32.9424 6.62609C33.1201 6.81587 33.083 7.2115 32.9795 7.42789C32.6497 7.81046 32.0387 7.7964 31.5296 7.73264C31.5667 7.30036 31.4071 6.88014 31.4392 6.43531C31.872 6.49857 32.6241 6.28168 32.9424 6.62609ZM24.5424 8.38181C24.6684 8.70012 24.6759 9.21824 24.4048 9.40702L23.1451 9.94121C22.8308 9.36334 22.6973 8.96721 22.4809 8.49728C23.0658 8.28089 24.0704 7.40278 24.5424 8.38181ZM33.3621 9.52751C33.463 9.97385 33.2607 10.4317 32.8274 10.5211C32.4202 10.5839 32.1155 10.5462 31.6822 10.5588C31.6184 10.0999 31.5813 9.48936 31.6184 9.10729C32.2033 9.1836 33.083 8.8658 33.3621 9.52751Z" fill="#1864AB"/>
<path d="M50.5432 12.009C50.9765 12.5431 51.2702 13.2047 51.4605 13.8788C50.9258 14.1659 50.5186 14.4907 50.009 14.7191C49.883 13.93 49.4497 13.1284 48.6735 12.7343C48.3045 12.5175 47.7562 12.4793 47.337 12.6194C46.6874 12.8608 46.1281 13.421 45.8861 14.07C45.6697 14.6935 45.9112 15.3038 46.2686 15.7872C46.7642 16.3474 47.4274 16.641 48.176 16.6661C47.8396 17.2193 47.6558 17.5687 47.337 18.0023C46.0889 17.8236 44.9186 17.1365 44.2062 15.9785C43.5951 14.9992 43.5575 13.4978 44.0922 12.4668C44.6515 11.3339 45.7595 10.6086 46.9545 10.4429C48.3934 10.3922 49.6912 10.965 50.5432 12.009Z" fill="#E7F5FF" fill-opacity="0.4"/>
<path d="M17.4778 14.1466C17.1181 14.4782 16.7356 14.7842 16.3331 15.0624C16.0273 14.3369 15.7341 13.6877 15.4163 12.8859C16.1473 13.275 16.7895 13.7259 17.4778 14.1466Z" fill="#1864AB"/>
<path d="M54.3629 16.513C53.778 17.0983 53.0018 17.5952 52.3767 18.1549C53.3703 18.3708 54.4894 18.3326 55.5081 18.4983C55.9665 19.1608 56.208 19.7968 56.6538 20.5979L52.9119 20.3314C52.0845 21.6289 51.3339 22.9521 50.6205 24.3008C50.1757 23.6518 49.8328 22.8131 49.399 22.0877C49.8835 21.1074 50.5126 20.0704 50.9976 19.0901C50.1641 19.6061 49.4321 20.2737 48.5836 20.8077L47.2617 19.0323C49.043 17.5054 50.9649 16.1441 52.8361 14.7582L52.9877 14.7035L54.3629 16.513ZM12.3487 16.0427C12.0108 16.7424 11.5655 17.2193 11.2547 17.8874L15.6071 20.75C15.3777 21.3985 14.8816 22.036 14.4609 22.6584L9.99406 19.8716C9.59341 20.3997 9.30623 20.9408 8.90509 21.6154C8.31968 21.2279 7.90598 20.9729 7.43555 20.6366C8.5436 18.7899 9.59341 17.0602 10.8149 15.1442L12.3487 16.0427Z" fill="#E7F5FF" fill-opacity="0.4"/>
<path d="M24.594 33.0619C24.6018 33.3636 24.5711 33.665 24.5027 33.9589C23.8284 35.3207 22.7344 36.5158 22.5567 38.0824C21.7805 38.5774 21.1429 39.4432 20.0363 39.1511C19.9977 39.4432 20.087 39.8875 20.1884 40.2188C19.3108 40.1816 18.7119 40.8296 17.9733 41.1353C17.5792 41.0088 17.4773 40.4988 17.3252 40.143C18.1897 39.8508 18.8133 38.985 19.8064 38.999C19.9213 38.6793 19.7421 38.3871 19.6914 38.0824C18.4563 37.5343 16.4968 40.792 16.3321 37.9675C17.5662 37.8912 18.3554 36.7457 19.5779 36.6313L19.6151 35.7147C18.2279 35.5747 17.3367 37.0002 15.95 36.8597L15.6438 35.6389C17.2474 35.7398 18.2028 34.3027 19.7301 34.2254C19.9329 33.9589 19.9585 33.5639 19.9977 33.1949C18.3303 32.9781 17.1851 34.8243 15.4158 34.2636C15.4158 34.2636 15.3556 33.4951 15.3224 33.0614H24.594" fill="#1864AB"/>
<path d="M26.5501 33.062C26.6064 33.7396 26.4407 34.4157 25.8021 35.1049C24.8853 36.1851 23.957 37.5469 24.6187 38.9991C25.3191 40.6008 27.5206 41.8481 26.5657 43.8459C26.0446 45.1058 24.7964 46.0605 24.8476 47.5488C24.5173 47.4088 24.1744 47.2682 23.8937 47.0147C23.8937 45.1189 26.5908 43.9353 25.3055 41.9375C25.1921 42.3315 25.1664 42.8661 25.0771 43.3118C24.6307 44.4698 23.6768 45.398 23.3199 46.5961C22.7229 46.3657 22.0983 45.8823 21.6018 45.3734L22.2901 44.9527C22.2138 44.6977 22.0095 44.4819 21.8312 44.2655C21.3849 44.2028 21.0927 44.4949 20.7242 44.6099C20.4059 44.3293 20.0996 44.0748 19.8461 43.7315C20.0745 43.0814 21.8568 43.6175 20.9526 42.5484C20.3421 42.1669 19.7316 42.714 19.1969 42.969L18.4714 42.0524C19.095 41.6709 19.7181 41.1359 20.4937 41.289C20.685 41.6333 20.6986 42.1408 21.0671 42.3205C22.378 42.2949 23.3073 41.302 24.3124 40.5255C23.6116 39.4834 23.0402 38.0443 23.6628 36.7844C24.1613 35.5215 25.4617 34.4589 25.5204 33.063H26.5501" fill="#1864AB"/>
<path d="M28.4153 33.062C28.4805 33.6442 28.3846 34.2415 27.978 34.8745C27.1516 35.9959 26.0696 37.1775 26.5652 38.6537C27.0361 40.143 28.8947 41.046 28.7803 42.7773C28.7677 44.8252 26.3869 46.0987 27.0617 48.3891L25.8783 48.0066C25.4079 45.9712 27.5713 44.9281 27.5964 43.0448C27.9021 40.8804 25.1388 40.0783 25.3045 37.9675C25.2929 36.3638 26.7052 35.3458 27.3288 33.9971C27.4289 33.696 27.4725 33.3789 27.4573 33.062H28.4153Z" fill="#1864AB"/>
<path d="M34.9581 33.0619C34.8788 33.5935 34.9754 34.1363 35.2333 34.6079C36.0602 35.9175 37.5116 37.3059 36.6064 38.999C35.653 40.3969 34.0619 41.7598 34.6976 43.5783C35.3979 45.1695 36.8614 46.6834 36.0717 48.6566L34.8888 48.9231C35.8302 47.0006 34.4184 45.0937 33.5915 43.4262C32.5854 41.0339 35.7544 39.887 35.8051 37.7C35.7931 36.2885 34.2909 35.4863 33.9736 34.1883C33.3239 33.6402 32.6491 34.4051 31.8724 34.2636C31.2996 34.379 30.4215 33.4745 30.0786 34.4548C29.6709 35.8919 27.8118 36.949 28.6276 38.6537C29.4043 40.1686 31.274 41.2754 30.6499 43.236C30.0906 45.0671 28.245 46.8114 29.3902 48.9231C28.9193 48.771 28.0407 49.0632 28.0538 48.3123C27.3283 45.7543 30.4215 44.2655 29.4661 41.7086C29.0212 40.143 26.9969 39.2771 27.4427 37.3938C27.7721 35.8437 29.5097 34.7595 29.2657 33.0614H34.9581" fill="#1864AB"/>
<path d="M36.7982 33.062C36.7736 33.4971 36.8614 33.9298 37.1421 34.3404C38.0207 35.766 39.548 37.3316 38.6699 39.1893C37.6773 40.6776 35.9462 42.192 36.9127 44.1521C37.613 45.3227 38.6955 46.4922 38.4033 47.9313L37.2571 48.3128C38.0207 45.6283 34.2783 44.0492 35.8448 41.3648C36.8122 39.9267 38.5424 38.5774 37.5633 36.669C36.9779 35.4869 35.7685 34.7867 35.8061 33.3094L35.8473 33.0625L36.7982 33.062Z" fill="#1864AB"/>
<path d="M38.694 33.0619C38.6879 33.443 38.7848 33.8186 38.9747 34.1491C39.8021 35.6394 41.2917 37.0509 40.7319 38.9207C40.5778 39.4944 40.1214 39.9402 40.0064 40.5244C40.9749 41.3266 41.8907 42.2291 43.1754 42.2803C43.6333 41.9881 43.3788 40.6901 44.3207 41.2879L45.6948 41.9761C45.5944 42.3445 45.2876 42.6763 45.0085 42.9298C44.4868 42.6758 43.9777 42.3701 43.3276 42.3947C43.1358 42.5985 42.9701 42.8279 42.9847 43.12C43.4425 43.1953 43.8613 43.3866 44.2438 43.6541C44.0661 44.0366 43.7217 44.2775 43.4034 44.5707L42.3345 44.1882C42.1568 44.4432 41.7862 44.7107 41.9158 44.9903C42.1568 45.0932 42.4249 45.2323 42.6021 45.411C42.1312 45.9199 41.5337 46.2492 40.9598 46.5951C40.4648 44.9783 38.8341 43.8449 38.9742 41.9756L38.8989 41.8993C38.5163 42.3305 38.6448 43.0187 38.6699 43.5778C39.1283 44.7484 40.2228 45.6534 40.3885 46.9374C40.1972 47.2677 39.7644 47.3314 39.4331 47.4715C39.4717 45.156 35.9593 43.4011 38.212 41.059C38.9631 39.9121 40.2228 38.8188 39.7765 37.2407C39.3186 35.7162 37.6969 34.7701 37.711 33.0614H38.694" fill="#1864AB"/>
<path d="M48.8658 33.0619C48.8783 33.4921 48.918 33.862 48.7498 34.3032C47.0062 34.7992 45.8609 32.954 44.169 33.2326L44.3593 34.1883C45.9247 34.2395 46.9047 35.7403 48.5214 35.6756C48.2919 36.1344 48.6233 37.3431 47.6056 36.8597C46.5493 36.6057 45.7851 35.6756 44.6269 35.6756C44.4873 35.9316 44.5757 36.2885 44.5511 36.5921C45.7726 36.7834 46.6507 37.8149 47.8717 38.0056C47.7567 38.4253 47.6423 38.8946 47.2989 39.1506C46.3053 38.9087 45.5296 38.0172 44.4722 38.0428L44.283 38.9202C45.2881 38.9458 45.9378 39.8368 46.841 40.1033C46.8656 40.4738 46.5357 40.804 46.3449 41.1348C45.5436 40.8939 44.9321 40.2062 44.0159 40.2574C44.0028 39.9121 44.2066 39.519 44.1293 39.1506C43.1001 39.4563 42.4113 38.5016 41.6491 37.9278C41.627 36.0515 39.6514 34.8192 39.547 33.0614H48.8658" fill="#1864AB"/>
<path d="M15.3229 33.0619C15.3109 32.8923 15.3014 32.7748 15.3014 32.7748C16.8798 33.3867 18.266 32.2538 19.6156 31.669C19.959 31.5661 20.4932 31.7448 20.6473 31.3633C20.6338 31.0707 21.1685 30.7268 20.7236 30.523C18.75 30.2555 17.4396 32.6358 15.4163 31.5541L15.2627 31.2484C15.6834 25.4975 18.9288 19.9368 24.3119 17.2007C29.1232 14.4515 36.5055 14.6814 41.0361 17.8879C43.4425 19.3636 45.7455 21.7946 46.9941 24.2637C48.189 26.4266 48.7373 28.8561 48.9014 31.4396C46.8138 33.0172 45.4141 29.9518 43.2879 30.638C43.4028 30.9693 43.4666 31.3126 43.7096 31.5927C45.5938 31.5797 46.8912 33.5523 48.8638 32.7748L48.8653 33.0619H39.5465C39.5266 32.677 39.5925 32.2925 39.7393 31.936C40.3884 30.4347 40.1841 28.4866 39.4717 27.0867C39.2553 26.7182 38.8737 26.4261 38.5168 26.2093C39.0394 27.3171 39.675 28.6272 39.3572 29.9885C39.3206 31.0396 38.7015 32.0485 38.6945 33.0619H37.7114L37.7155 32.9284C38.084 31.1465 39.2056 29.2501 38.2888 27.3542C38.0338 26.5912 37.4624 25.7259 36.6857 25.4076C37.8435 26.7318 38.3014 28.8942 37.6391 30.6766C37.3053 31.3854 36.8449 32.2282 36.7992 33.0614H35.8473C36.2414 30.9658 37.8365 28.983 36.7224 26.7433C36.4297 26.0818 35.8448 25.4076 35.1956 25.0251L35.1564 25.0643C36.4553 26.3242 36.8494 28.3988 36.1495 30.0648C35.8222 31.0421 35.1047 32.0138 34.9591 33.0614H29.2662C29.2449 32.9122 29.2101 32.7652 29.1623 32.6222C28.5131 30.7896 27.1887 28.958 27.9779 26.8191C28.1948 26.2083 28.6281 25.6862 29.0087 25.1401C27.7485 25.8142 27.1124 27.2398 27.138 28.6904C27.0833 30.267 28.2496 31.6183 28.4152 33.0614H27.4578C27.3815 31.5696 26.0375 30.4056 26.2604 28.7286C26.3357 27.4943 26.7554 26.412 27.5572 25.4839C26.4507 25.9287 25.9928 27.2016 25.687 28.2703C25.1564 29.9844 26.4231 31.5254 26.5501 33.0614H25.5203C25.5327 32.7154 25.4726 32.3705 25.3441 32.049C24.6573 30.2806 24.4148 27.8893 25.7257 26.3237C25.0128 26.5149 24.593 27.4044 24.351 28.079C23.5628 29.8058 24.5599 31.406 24.594 33.0614H15.3229" fill="#1864AB"/>
<path d="M32.9795 18.307L35.042 18.422L35.0038 18.6132L33.4766 20.0639C33.7432 20.7134 34.0108 21.3624 34.2784 22.0099C35.4366 21.3368 36.5447 20.4966 37.9444 20.4067C37.8169 21.1456 37.2571 21.9221 37.3324 22.659C38.1985 22.4175 38.9887 21.8835 39.9306 21.9336C39.3442 23.0159 38.4912 24.0981 38.44 25.4463C37.1547 24.9639 35.8307 24.3772 34.3933 24.1488C31.3257 23.6262 28.3721 24.3009 25.8387 25.5231C25.6228 24.2381 24.9997 23.1178 24.2356 22.0491C24.6935 21.8965 25.2533 22.15 25.7252 22.279C26.1198 22.3924 26.4507 22.6595 26.8709 22.7368C26.9462 21.9733 26.5019 21.2224 26.1841 20.5222C26.4005 20.3565 26.7439 20.483 26.9859 20.5608C27.9905 20.9418 28.8947 21.5396 29.8115 22.0877C30.2819 21.5396 30.4592 20.7505 30.6505 20.0252L29.086 18.6132V18.4611L31.1475 18.3457C31.4904 17.6972 31.7199 17.01 32.0638 16.361C32.484 16.9337 32.6241 17.6846 32.9795 18.307Z" fill="#E7F5FF" fill-opacity="0.4"/>
<path d="M33.705 22.4685L33.5152 22.6593C32.5603 22.5579 31.5551 22.6844 30.6504 22.6985C30.549 22.5965 30.3462 22.4434 30.5355 22.3159L31.9869 21.2078C32.5859 21.5532 33.2215 21.9981 33.705 22.4685Z" fill="#1864AB"/>
<path d="M8.23735 23.0023C7.4476 23.6141 6.8878 24.5051 7.05399 25.5226C7.14335 25.6752 7.23172 25.9035 7.43556 25.9417C8.07167 25.9417 8.28806 25.2555 8.58026 24.8349C8.92417 24.0714 9.58689 23.2437 10.4901 23.1554C11.2663 23.1052 11.9295 23.3079 12.4381 23.9188C13.2143 24.8484 13.0742 26.3498 12.7057 27.432C12.3608 28.2336 11.8266 29.0468 11.0635 29.5693L9.68831 28.729C10.4394 28.2085 11.2291 27.3547 11.3306 26.4005C11.3306 26.0571 11.2553 25.5989 10.8335 25.5602C9.95591 25.8152 9.86705 26.8708 9.26909 27.4691C8.81121 27.9405 8.23785 28.2959 7.51187 28.194C6.8371 28.1553 6.26374 27.7362 5.86962 27.2016C5.11853 26.0571 5.48755 24.3761 5.94593 23.4992C6.22659 23.0023 6.55795 22.5063 7.01583 22.1238C7.3969 22.3412 7.84323 22.6725 8.23735 23.0023ZM58.1048 23.9966C58.766 25.0648 59.022 26.4768 58.6776 27.7753L57.2648 27.699C57.4566 26.8462 57.5962 25.7776 56.9977 25.0648C56.82 24.8484 56.5017 24.7204 56.2722 24.8354C55.4961 25.7008 56.3375 26.9486 55.8535 27.9279C55.6236 28.3742 55.2802 28.9082 54.7836 29.1105C53.9808 29.4162 52.9882 29.2636 52.3772 28.6527C51.1818 27.4054 50.621 25.4709 51.3857 23.8425H52.8743C52.6197 24.48 52.443 25.3825 52.684 26.1334C52.8105 26.4517 52.9636 26.8588 53.3337 26.9732C54.5552 27.0174 53.7273 25.2681 54.02 24.4529C54.135 23.8425 54.4653 23.2066 55.0884 22.926C56.2336 22.3663 57.5711 23.0023 58.1048 23.9966ZM20.6473 26.4005C21.8814 25.9291 23.5613 25.1155 24.8853 25.9809C24.6046 26.3749 24.0589 26.5917 23.6627 26.9346C23.0146 27.5705 22.2253 28.3461 21.7549 29.1482C20.1639 28.8294 18.8901 29.7601 17.5541 30.2941C17.045 30.395 16.3703 30.4462 15.9505 30.1029C17.2107 28.0278 18.9915 26.1194 18.5467 23.3837C18.6868 23.1418 18.9283 23.3461 19.0809 23.4224C20.0619 24.1859 20.5324 25.2425 20.6473 26.4005ZM45.7716 23.6899C45.2761 26.2855 47.0569 28.1187 48.2533 30.1034C46.8796 31.02 45.5798 29.6065 44.2825 29.2631C43.7096 29.1748 43.0359 29.0975 42.4871 29.1868C41.6994 27.9661 40.6425 26.8201 39.3567 26.1334C39.4325 25.7143 40.0179 25.6872 40.4261 25.6365C41.5588 25.5231 42.5514 25.9934 43.4807 26.4773C43.6589 26.0582 43.7352 25.5863 43.8617 25.1416C44.1685 24.3907 44.7675 23.6262 45.5437 23.309C45.7083 23.334 45.8228 23.5127 45.7716 23.6899ZM35.156 26.0576C35.1951 26.2735 35.411 26.4647 35.2709 26.7067C34.5199 26.4768 33.6679 26.6038 32.9419 26.8964C32.2922 27.3798 32.3941 28.3737 32.5598 29.0724L32.7511 29.226C33.0689 29.1492 33.0824 28.7426 33.3616 28.6527C33.833 28.7677 34.4817 28.9338 34.927 28.6527C35.3211 28.6658 35.3096 29.2124 35.3468 29.493C35.0671 30.9693 34.4435 32.5725 32.9419 33.2722C32.3178 33.5779 31.5155 33.3731 30.9176 33.1573C29.4415 32.2794 28.6141 30.5361 28.7798 28.9589C28.8947 28.717 29.073 28.5258 29.3536 28.6914C29.9501 29.098 30.5992 28.3737 31.1475 28.8811C31.8087 28.5885 31.4146 27.7753 31.4146 27.1645C30.8804 26.4768 29.9636 26.5782 29.1623 26.6294C28.8054 26.4125 29.1879 26.0697 29.2758 25.8278C30.1419 24.6065 31.7972 24.5814 33.2466 24.7591C33.9857 24.9498 34.8005 25.2681 35.156 26.0576Z" fill="#E7F5FF" fill-opacity="0.4"/>
<path d="M30.7268 27.8131V27.9668C30.2945 27.9281 29.5951 27.4953 29.2 28.0426C28.946 28.156 28.9078 27.8633 28.9334 27.6987C28.921 27.6585 28.9172 27.6162 28.9223 27.5745C28.9274 27.5328 28.9412 27.4926 28.9628 27.4566C28.9845 27.4206 29.0135 27.3895 29.048 27.3655C29.0824 27.3415 29.1216 27.325 29.1628 27.3171C29.7598 27.177 30.4346 27.3548 30.7268 27.8131ZM35.2709 27.6218C35.2589 27.7755 35.2966 27.9532 35.1183 28.0426C34.6343 27.8518 33.9596 27.5842 33.4761 27.9668C33.1954 27.3683 33.9731 27.4953 34.2397 27.3176C34.6348 27.3035 35.0932 27.292 35.2709 27.6218Z" fill="#E7F5FF" fill-opacity="0.4"/>
<path d="M32.8269 30.0653C32.5985 30.5488 31.8599 30.2435 31.4523 30.3319C31.3137 30.2807 31.4011 30.1291 31.376 30.0271C31.7836 29.7465 32.5091 29.7093 32.8269 30.0653ZM33.4374 31.1352C33.1337 31.5931 32.6748 32.1649 32.0643 32.1283C31.376 32.179 31.2238 31.6187 30.7268 31.2878L30.6896 31.0574C31.6064 31.198 32.6115 31.0207 33.4374 31.1352Z" fill="#1864AB"/>
<path d="M9.64964 37.0896C10.4208 37.0856 11.1608 37.1152 11.9571 37.0967L10.1853 38.5779C10.356 39.2013 10.5036 39.9181 10.7195 40.7544L8.96281 39.5326C8.22428 39.8699 7.77945 40.2836 7.01632 40.6776L7.62682 38.5774C7.04694 38.1031 6.39878 37.6528 5.85052 37.1694C6.64981 37.1489 7.34969 37.181 8.12236 37.1654C8.47933 36.4978 8.63848 35.7328 8.96281 35.0652L9.64964 37.0896ZM18.6993 47.1297C18.853 47.4981 19.0744 47.7903 19.1688 48.3434C18.7621 48.5994 18.248 48.8092 17.7831 49.0386C17.6696 48.1984 16.9306 47.3837 16.1037 47.1668C15.4168 46.9962 14.6657 47.3209 14.1572 47.9313C13.7364 48.4262 13.6089 49.14 13.7364 49.7634C14.0678 50.6273 14.9841 51.2798 15.9129 51.2798L16.18 51.2879C15.9877 51.7643 15.7582 52.2248 15.4937 52.6652C13.9528 52.613 12.4004 51.7095 11.8271 50.2202C11.331 49.0125 11.5479 47.4469 12.3241 46.441C13.266 45.2459 14.7682 44.9146 16.2191 45.2203C17.1972 45.4883 18.1139 46.2257 18.6993 47.1297ZM48.3667 46.3286L48.4631 46.4229L46.1722 48.5552L46.9359 49.4768C47.5845 48.9678 48.2854 48.4267 48.9787 47.7787C49.3352 48.0779 49.6224 48.4267 49.9588 48.8228C49.2725 49.4768 48.5585 49.9226 47.9611 50.5465C48.2156 50.8652 48.4119 51.2266 48.8 51.6091L51.2702 49.5727L52.3255 50.6609C50.9258 51.9901 49.399 53.3589 47.948 54.4206L43.6328 48.8469C45.0079 47.7009 46.1657 46.6579 47.3752 45.4487C47.7447 45.6916 48.0123 46.0088 48.3667 46.3286ZM24.0834 51.0238C24.8596 52.0162 24.8722 53.5552 24.3882 54.6876C23.8485 55.8396 22.8107 56.5719 21.6776 56.8259C20.3044 57.0418 19.0056 56.5975 18.0125 55.6438C17.1349 54.6761 16.6509 53.2892 17.0957 51.9409C17.4904 50.4772 18.9157 49.4086 20.3802 49.2304C21.894 49.1405 23.2942 49.8402 24.0834 51.0238Z" fill="#E7F5FF" fill-opacity="0.4"/>
<path d="M22.4804 51.9406C22.9116 52.9457 22.4156 53.9383 21.7157 54.6507C21.2709 55.0067 20.688 55.2311 20.1031 55.0147C19.7346 54.8365 19.2792 54.5107 19.1773 54.1155C18.8966 53.0978 19.362 52.1434 20.074 51.4436C20.5068 51.0866 21.1308 50.8837 21.6771 51.1378C22.0084 51.2392 22.3774 51.6092 22.4804 51.9406Z" fill="#1864AB"/>
<path d="M37.6773 53.5552C36.6064 53.7093 35.5837 53.8368 34.564 54.0024C34.667 54.5044 34.6213 54.8407 34.6981 55.2231C35.653 55.2046 36.4869 55.0349 37.3781 54.92L37.6387 56.5523C36.732 56.7209 35.8188 56.8527 34.9014 56.9474C34.927 57.6847 35.0249 58.5877 35.0134 59.4024C34.2628 59.5174 33.4525 59.5997 32.6758 59.5485L32.2179 52.5889L32.2119 52.4428C33.9255 52.2794 35.6334 52.0606 37.3329 51.7868C37.4037 52.3088 37.5629 52.9117 37.6773 53.5552ZM43.5168 50.4265L43.5811 50.5459L40.7851 51.9479L41.2586 53.0467C42.1116 52.7214 42.8481 52.4182 43.6956 51.9901C43.9541 52.3781 44.1314 52.7932 44.3442 53.2665C43.5756 53.6761 42.7798 53.9939 41.9419 54.3618C42.0975 54.7383 42.1758 55.0128 42.4494 55.6167L45.392 54.3548L46.1005 55.697C44.3834 56.5794 42.5338 57.4639 40.8418 58.0763L38.2648 51.5167C39.906 50.8029 41.3113 50.1258 42.8104 49.3061C43.0981 49.6414 43.2653 50.0219 43.5168 50.4265ZM31.1681 54.3462C30.1032 54.168 29.087 53.9778 28.0673 53.8247C28.0106 54.3347 27.8665 54.6424 27.8238 55.0284C28.7391 55.3009 29.5846 55.3933 30.4682 55.5549L30.2197 57.1913C29.3043 57.0756 28.394 56.9229 27.491 56.7335C27.2912 57.4433 27.1114 58.3343 26.8529 59.1073C26.1018 58.9878 25.304 58.8191 24.58 58.5335L26.2599 51.7652L26.2996 51.6251C27.9925 51.9911 29.7267 52.3103 31.378 52.5573C31.2856 53.0758 31.2534 53.7002 31.1681 54.3462ZM55.9128 37.1001C56.6824 37.0971 57.3703 37.1177 58.2188 37.1082L56.4485 38.5894C56.6207 39.2118 56.7668 39.9286 56.9817 40.7659L55.2265 39.5431C54.4864 39.8794 54.0421 40.2941 53.2785 40.6881L53.8895 38.5889C53.3101 38.1156 52.6604 37.6633 52.1152 37.1799C52.9124 37.1594 53.6128 37.1915 54.385 37.1759C54.6968 36.4807 54.9197 35.8131 55.2265 35.0757L55.9128 37.1001Z" fill="#E7F5FF" fill-opacity="0.4"/>
<path d="M52.7934 58.5652C53.7885 58.5652 54.6415 59.3389 54.6415 60.3887C54.6415 61.448 53.789 62.2212 52.7934 62.2212C51.7883 62.2212 50.9358 61.448 50.9358 60.3887C50.9358 59.3389 51.7883 58.5652 52.7934 58.5652ZM52.7934 58.8609C51.9459 58.8609 51.2908 59.5166 51.2908 60.3887C51.2908 61.2803 51.9464 61.926 52.7934 61.926C53.6314 61.926 54.2866 61.2808 54.2866 60.3887C54.2861 59.5166 53.6314 58.8609 52.7934 58.8609ZM52.4038 61.448H52.079V59.3389H52.8868C53.3894 59.3389 53.6359 59.5261 53.6359 59.9398C53.6359 60.3194 53.3989 60.4821 53.0836 60.5212L53.6846 61.448H53.3301L52.7683 60.5313H52.4033L52.4038 61.448ZM52.4038 60.2657H52.7884C53.1825 60.2657 53.3105 60.1517 53.3105 59.9203C53.3105 59.7184 53.2121 59.605 52.8426 59.605H52.4038V60.2657Z" fill="#1864AB"/>
</svg>
