<svg width="144" height="39" viewBox="0 0 144 39" fill="none" xmlns="http://www.w3.org/2000/svg">
<path d="M16.4571 21.3473L14.6057 25.4526L10.2857 16.6263H12.1371L14.4 21.3473L16.2514 17.2421L18.1028 21.3473L20.5714 16.6263H22.4228L18.3086 25.4526L16.4571 21.3473ZM24.6857 21.3473V23.8105L22.8343 24.6315V16.421H24.6857V19.5H29.4171V17.0368L31.0629 16.2158V24.4263H29.4171V21.3473H24.6857ZM33.7371 24.221H32.0914V16.6263H33.7371V24.221ZM42.9943 16.6263L42.1714 18.2684H39.2914V24.221H37.6457V18.2684H34.3543V16.6263H42.9943ZM52.0457 16.6263L51.2229 18.2684H45.2571V19.5H51.2229L50.4 21.1421H45.2571V22.5789H51.4286V24.221H43.2V16.6263H52.0457ZM75.7029 29.7631C75.2914 29.9684 74.88 29.9684 73.8514 29.9684C73.2343 29.9684 72.4114 29.7631 70.9714 29.1473C67.68 27.3 68.9143 21.5526 71.7943 19.9105C74.88 18.2684 77.5543 21.1421 78.1714 21.5526C77.76 20.1158 75.0857 18.2684 75.0857 18.2684C75.0857 18.2684 76.7314 17.0368 77.76 17.0368C76.5257 17.0368 69.3257 16.8316 67.68 23.6052C67.0629 26.8894 68.5029 30.1737 72.6171 31.2C72.6171 31.2 74.6743 31.6105 75.4971 32.8421C76.32 34.4842 77.76 36.1263 80.2286 37.1526C77.76 34.4842 78.5829 32.4315 79.4057 31.2C80.4343 29.7631 83.1086 28.3263 87.4286 28.5315C83.3143 25.8631 77.9657 28.5315 75.7029 29.7631ZM66.24 15.1894C65.8286 15.1894 59.6571 14.3684 54.3086 19.0894C56.16 18.4737 59.2457 18.0631 61.7143 18.0631C61.7143 21.5526 62.9486 25.0421 66.8571 27.7105C64.8 25.8631 63.1543 19.0894 66.24 15.1894Z" fill="#E7F5FF" fill-opacity="0.4"/>
<path d="M89.8972 10.2632C89.28 8.82632 74.2629 2.2579 65.0057 10.2632C66.24 8.21054 68.9143 6.56843 68.9143 6.56843C68.9143 6.56843 64.1829 0.410535 59.2457 2.87369C61.3029 2.66843 66.0343 7.38948 63.1543 12.1105C62.5372 12.9316 62.1257 13.9579 61.92 14.9842C63.9772 14.5737 65.8286 14.5737 66.6514 14.5737C67.2686 13.7526 69.12 11.9053 72 10.879C72 10.6737 72.2057 9.23685 73.44 8.62106C72.8229 9.64738 72.8229 10.4684 72.8229 10.6737C72.8229 10.6737 72.8229 11.4947 73.2343 12.1105C73.0286 11.2895 73.2343 10.6737 73.2343 10.4684C73.2343 10.2632 73.6457 8.82632 74.88 8.21054C74.2629 9.44211 74.0572 10.2632 74.0572 10.4684C74.0572 10.6737 74.0572 11.2895 74.2629 11.9053C74.2629 11.0842 74.4686 10.4684 74.4686 10.2632C74.6743 9.85264 75.0857 8.82632 76.32 8.4158C75.7029 9.03159 75.2914 9.85264 75.2914 10.2632V10.4684C75.2914 10.6737 75.0857 11.2895 75.2914 11.9053C75.4972 11.0842 75.7029 10.6737 75.7029 10.4684C75.9086 10.2632 76.5257 9.03159 77.76 8.62106C76.9372 9.23685 76.5257 10.0579 76.5257 10.4684H77.3486C78.7886 10.4684 79.8172 10.2632 81.0514 10.4684C80.64 10.2632 79.8172 9.64738 80.0229 9.03159C80.4343 9.23685 82.08 10.0579 82.2857 10.6737C82.6972 10.6737 83.1086 10.6737 83.52 10.879C83.9314 10.879 84.1372 11.0842 84.5486 11.0842C84.96 11.0842 85.5772 11.2895 85.9886 11.4947C86.4 11.7 87.4286 12.3158 84.1372 13.9579L81.6686 14.3684C81.8743 13.1369 78.9943 11.9053 73.2343 13.7526C83.3143 12.5211 79.6114 15.6 79.4057 15.8053C79.8172 15.6 82.6972 14.5737 83.7257 14.1632C85.3714 13.3421 88.0457 12.3158 89.0743 11.4947C89.4857 11.2895 90.1029 10.6737 89.8972 10.2632ZM91.5429 16.4211H97.92L97.0972 18.0632H91.5429C91.3372 18.0632 91.1314 18.2684 91.1314 18.4737V18.8842C91.1314 19.0895 91.3372 19.2947 91.5429 19.2947H95.4515C96.8914 19.2947 97.5086 19.9105 97.5086 21.3474V21.7579C97.5086 23.1947 96.8914 23.8105 95.4515 23.8105H89.0743L89.8972 22.1684H95.4515C95.6572 22.1684 95.8629 21.9632 95.8629 21.7579V21.3474C95.8629 21.1421 95.6572 20.9369 95.4515 20.9369H91.5429C90.1029 20.9369 89.4857 20.3211 89.4857 18.8842V18.679C89.4857 17.2421 90.1029 16.4211 91.5429 16.4211ZM100.183 21.1421V23.6053L98.5372 24.6316V16.4211H100.183V19.5H104.914V17.0369L106.56 16.2158V24.4263H104.914V21.3474H100.183V21.1421ZM110.469 24.2211L109.646 22.579L108.823 24.2211H106.971L111.086 15.3947L115.2 24.2211H110.469ZM109.646 22.579H112.526L111.086 19.2947L109.646 22.579ZM117.463 19.5V24.6316L115.817 23.8105V16.4211H121.783C123.223 16.4211 123.84 17.0369 123.84 18.4737V18.8842C123.84 20.1158 123.429 20.7316 122.4 20.9369L124.251 24.0158H122.194L120.549 20.9369H118.286L117.463 19.5ZM117.463 19.5H121.783C121.989 19.5 122.194 19.2947 122.194 19.0895V18.679C122.194 18.4737 121.989 18.2684 121.783 18.2684H117.463V19.5ZM126.514 21.1421V23.6053L124.663 24.6316V16.4211H126.309V19.5H128.366L131.246 16.4211H133.714L130.011 20.3211L133.714 24.2211H131.246L128.366 21.1421H126.514Z" fill="#E7F5FF" fill-opacity="0.4"/>
</svg>
